<?xml version="1.0" standalone="no"?>
<!DOCTYPE svg PUBLIC "-//W3C//DTD SVG 20010904//EN"
 "http://www.w3.org/TR/2001/REC-SVG-20010904/DTD/svg10.dtd">
<svg version="1.0" xmlns="http://www.w3.org/2000/svg"
 width="30.000000pt" height="30.000000pt" viewBox="0 0 30.000000 30.000000"
 preserveAspectRatio="xMidYMid meet">

<g transform="translate(0.000000,30.000000) scale(0.100000,-0.100000)"
fill="#000000" stroke="none">
<path d="M127 224 c-4 -4 -7 -15 -7 -25 0 -9 -9 -19 -20 -22 -15 -4 -20 -14
-20 -40 0 -59 7 -67 60 -67 72 0 80 5 80 57 0 36 -4 46 -19 50 -11 3 -21 15
-23 27 -3 21 -37 34 -51 20z m43 -29 c0 -8 -9 -15 -20 -15 -11 0 -20 7 -20 15
0 8 9 15 20 15 11 0 20 -7 20 -15z m-40 -42 c0 10 8 17 20 17 12 0 20 -7 20
-17 1 -17 1 -17 11 0 14 23 29 12 29 -22 0 -37 -17 -51 -60 -51 -43 0 -60 14
-60 50 0 35 11 45 27 24 12 -16 13 -17 13 -1z"/>
</g>
</svg>
